solid Untitled-59e64daf
facet normal 1.0 -1.0799950800042816e-16 -2.819966482547902e-15
  outer loop
    vertex 21.55042151312372 1.181243062019348 -4.200000047683724
    vertex 21.550421513123723 13.91670291900635 -3.7000000476837154
    vertex 21.55042151312372 1.1812430620193477 -3.7000000476837243
  endloop
endfacet
facet normal 1.0 -1.0799950800042816e-16 -2.819966482547902e-15
  outer loop
    vertex 21.550421513123723 13.91670291900635 -3.7000000476837154
    vertex 21.55042151312372 1.181243062019348 -4.200000047683724
    vertex 21.55042151312372 13.91670291900635 -4.200000047683724
  endloop
endfacet
facet normal 0.0 1.0 0.0
  outer loop
    vertex 2.0216553211212154 13.91670291900635 -4.200000047683715
    vertex 21.550421513123723 13.91670291900635 -3.7000000476837154
    vertex 21.55042151312372 13.91670291900635 -4.200000047683724
  endloop
endfacet
facet normal 0.0 1.0 0.0
  outer loop
    vertex 21.550421513123723 13.91670291900635 -3.7000000476837154
    vertex 2.0216553211212154 13.91670291900635 -4.200000047683715
    vertex 2.021655321121216 13.91670291900635 -3.7000000476837154
  endloop
endfacet
facet normal 2.346510521497745e-16 -3.5099840100139475e-16 1.0
  outer loop
    vertex 21.55042151312372 1.1812430620193477 -3.7000000476837243
    vertex 2.021655321121216 13.91670291900635 -3.7000000476837154
    vertex 2.0216553211212154 1.181243062019348 -3.7000000476837154
  endloop
endfacet
facet normal 2.346510521497745e-16 -3.5099840100139475e-16 1.0
  outer loop
    vertex 2.021655321121216 13.91670291900635 -3.7000000476837154
    vertex 21.55042151312372 1.1812430620193477 -3.7000000476837243
    vertex 21.550421513123723 13.91670291900635 -3.7000000476837154
  endloop
endfacet
facet normal -9.02504046729918e-18 -1.0 -3.5249581031848753e-16
  outer loop
    vertex 21.55042151312372 1.1812430620193477 -3.7000000476837243
    vertex 2.0216553211212154 1.181243062019348 -4.200000047683715
    vertex 21.55042151312372 1.181243062019348 -4.200000047683724
  endloop
endfacet
facet normal -9.02504046729918e-18 -1.0 -3.5249581031848753e-16
  outer loop
    vertex 2.0216553211212154 1.181243062019348 -4.200000047683715
    vertex 21.55042151312372 1.1812430620193477 -3.7000000476837243
    vertex 2.0216553211212154 1.181243062019348 -3.7000000476837154
  endloop
endfacet
facet normal -4.3320194243035306e-16 0.0 -1.0
  outer loop
    vertex 21.55042151312372 13.91670291900635 -4.200000047683724
    vertex 2.0216553211212154 1.181243062019348 -4.200000047683715
    vertex 2.0216553211212154 13.91670291900635 -4.200000047683715
  endloop
endfacet
facet normal -4.3320194243035306e-16 0.0 -1.0
  outer loop
    vertex 2.0216553211212154 1.181243062019348 -4.200000047683715
    vertex 21.55042151312372 13.91670291900635 -4.200000047683724
    vertex 21.55042151312372 1.181243062019348 -4.200000047683724
  endloop
endfacet
facet normal -1.0 1.3499938500053642e-17 3.5249581031848733e-16
  outer loop
    vertex 2.021655321121216 13.91670291900635 -3.7000000476837154
    vertex 2.0216553211212154 1.181243062019348 -4.200000047683715
    vertex 2.0216553211212154 1.181243062019348 -3.7000000476837154
  endloop
endfacet
facet normal -1.0 1.3499938500053642e-17 3.5249581031848733e-16
  outer loop
    vertex 2.0216553211212154 1.181243062019348 -4.200000047683715
    vertex 2.021655321121216 13.91670291900635 -3.7000000476837154
    vertex 2.0216553211212154 13.91670291900635 -4.200000047683715
  endloop
endfacet
endsolid Untitled-59e64daf
