solid tapaled
facet normal 0.9999999034129183 -0.0004394571471824235 -7.181205508078169e-06
  outer loop
    vertex 1.8966954386889956 1.001561027351963 -4.299218013802519
    vertex 1.9016809783626505 12.336643536744035 -3.7065362618944833
    vertex 1.8966954386889954 0.9933904860889228 -3.7992180138025176
  endloop
endfacet
facet normal 0.9999999034129183 -0.0004394571471824235 -7.181205508078169e-06
  outer loop
    vertex 1.9016809783626505 12.336643536744035 -3.7065362618944833
    vertex 1.8966954386889956 1.001561027351963 -4.299218013802519
    vertex 1.901680978362651 12.344814078007074 -4.206536261894485
  endloop
endfacet
facet normal 0.999999903405876 -0.00043953184069283474 -2.9886656450896396e-19
  outer loop
    vertex 29.77429811196326 12.328472995480992 -4.206536261894485
    vertex 29.769312533698805 0.9852250531693405 -3.79921673726404
    vertex 29.769312533698805 0.9852250531693405 -4.2992167372640395
  endloop
endfacet
facet normal 0.999999903405876 -0.00043953184069283474 -2.9886656450896396e-19
  outer loop
    vertex 29.769312533698805 0.9852250531693405 -3.79921673726404
    vertex 29.77429811196326 12.328472995480992 -4.206536261894485
    vertex 29.77429811196326 12.328472995480992 -3.706536261894485
  endloop
endfacet
facet normal 4.812221538720102e-06 0.008170317276284502 -0.9999666223891912
  outer loop
    vertex 1.901680978362651 12.344814078007074 -4.206536261894485
    vertex 29.769312533698805 0.9852250531693405 -4.2992167372640395
    vertex 1.8966954386889956 1.001561027351963 -4.299218013802519
  endloop
endfacet
facet normal 4.812221538720102e-06 0.008170317276284502 -0.9999666223891912
  outer loop
    vertex 29.769312533698805 0.9852250531693405 -4.2992167372640395
    vertex 1.901680978362651 12.344814078007074 -4.206536261894485
    vertex 29.77429811196326 12.328472995480992 -4.206536261894485
  endloop
endfacet
facet normal -2.417187147717478e-06 -0.008170321914321325 0.9999666223599534
  outer loop
    vertex 29.769312533698805 0.9852250531693405 -3.79921673726404
    vertex 1.9016809783626505 12.336643536744035 -3.7065362618944833
    vertex 1.8966954386889954 0.9933904860889228 -3.7992180138025176
  endloop
endfacet
facet normal -2.417187147717478e-06 -0.008170321914321325 0.9999666223599534
  outer loop
    vertex 1.9016809783626505 12.336643536744035 -3.7065362618944833
    vertex 29.769312533698805 0.9852250531693405 -3.79921673726404
    vertex 29.77429811196326 12.328472995480992 -3.706536261894485
  endloop
endfacet
facet normal -0.0004396932511379038 -0.9999665261370094 -0.008170267763461381
  outer loop
    vertex 29.77429811196326 12.328472995480992 -3.706536261894485
    vertex 1.901680978362651 12.344814078007074 -4.206536261894485
    vertex 29.77429811196326 12.328472995480992 -4.206536261894485
  endloop
endfacet
facet normal -0.0004396932511379038 -0.9999665261370094 -0.008170267763461381
  outer loop
    vertex 1.901680978362651 12.344814078007074 -4.206536261894485
    vertex 29.77429811196326 12.328472995480992 -3.706536261894485
    vertex 1.9016809783626505 12.336643536744035 -3.7065362618944833
  endloop
endfacet
facet normal -0.0004395096091012992 -0.9999665262177361 -0.008170267764120961
  outer loop
    vertex 29.769312533698805 0.9852250531693405 -4.2992167372640395
    vertex 1.8966954386889954 0.9933904860889228 -3.7992180138025176
    vertex 1.8966954386889956 1.001561027351963 -4.299218013802519
  endloop
endfacet
facet normal -0.0004395096091012992 -0.9999665262177361 -0.008170267764120961
  outer loop
    vertex 1.8966954386889954 0.9933904860889228 -3.7992180138025176
    vertex 29.769312533698805 0.9852250531693405 -4.2992167372640395
    vertex 29.769312533698805 0.9852250531693405 -3.79921673726404
  endloop
endfacet
endsolid tapaled
